<svg width="160" height="38" viewBox="0 0 160 38" fill="none" xmlns="http://www.w3.org/2000/svg">
<path fill-rule="evenodd" clip-rule="evenodd" d="M25.0171 12.6843C23.8275 11.88 22.4289 11.4506 20.9982 11.4506V4.13037C23.8596 4.13037 26.6567 4.98902 29.0359 6.59775C31.4151 8.20647 33.2694 10.493 34.3645 13.1682C35.4595 15.8434 35.746 18.7872 35.1878 21.6271C34.6295 24.4671 33.2516 27.0758 31.2283 29.1233C29.205 31.1709 26.6271 32.5652 23.8207 33.1302C21.0142 33.6951 18.1052 33.4051 15.4617 32.297C12.8181 31.1889 10.5585 29.3124 8.96884 26.9048C7.37912 24.4971 6.53061 21.6665 6.53061 18.7709H13.7644C13.7644 20.2187 14.1887 21.634 14.9835 22.8378C15.7784 24.0417 16.9081 24.9799 18.23 25.534C19.5517 26.088 21.0062 26.233 22.4094 25.9505C23.8126 25.6681 25.1015 24.9709 26.1133 23.9472C27.1249 22.9233 27.8139 21.619 28.0929 20.199C28.3721 18.779 28.2289 17.3072 27.6813 15.9696C27.1338 14.632 26.2066 13.4887 25.0171 12.6843Z" fill="#246241"/>
<path fill-rule="evenodd" clip-rule="evenodd" d="M13.7644 4.13037C13.7644 5.09169 13.5773 6.04359 13.2138 6.93173C12.8502 7.81986 12.3174 8.62684 11.6457 9.30659C10.9739 9.98635 10.1765 10.5255 9.29886 10.8934C8.42121 11.2613 7.48056 11.4506 6.53061 11.4506L6.53061 18.7709C8.43052 18.7709 10.3118 18.3922 12.0671 17.6565C13.8224 16.9207 15.4173 15.8423 16.7607 14.4828C18.1042 13.1233 19.1698 11.5094 19.8969 9.73307C20.624 7.95679 20.9982 6.05299 20.9982 4.13037L13.7644 4.13037Z" fill="#246241"/>
<path d="M97.4007 14.7102H93.8909V25.9924H97.4007V14.7102Z" fill="#246241"/>
<path d="M94.2815 12.5975C94.6482 12.9689 95.1068 13.1547 95.6573 13.1547C96.2078 13.1547 96.6592 12.9689 97.0108 12.5975C97.363 12.2106 97.5388 11.7463 97.5388 11.2047C97.5388 10.6475 97.363 10.1832 97.0108 9.81179C96.6592 9.44035 96.2078 9.25464 95.6573 9.25464C95.1068 9.25464 94.6482 9.44035 94.2815 9.81179C93.9292 10.1832 93.7534 10.6475 93.7534 11.2047C93.7534 11.7463 93.9292 12.2106 94.2815 12.5975Z" fill="#246241"/>
<path d="M43.5359 25.9922V9.60278H47.1376V22.7887H54.3179V25.9922H43.5359Z" fill="#246241"/>
<path fill-rule="evenodd" clip-rule="evenodd" d="M60.8039 26.2476C59.6569 26.2476 58.617 25.9922 57.684 25.4815C56.7664 24.9553 56.04 24.2434 55.5047 23.3457C54.9695 22.4481 54.7018 21.4422 54.7018 20.3279C54.7018 19.2136 54.9695 18.2154 55.5047 17.3332C56.04 16.451 56.7664 15.7546 57.684 15.2439C58.6016 14.7177 59.6416 14.4546 60.8039 14.4546C61.9662 14.4546 63.0062 14.71 63.9238 15.2207C64.8414 15.7314 65.5679 16.4356 66.1031 17.3332C66.6384 18.2154 66.906 19.2136 66.906 20.3279C66.906 21.4422 66.6384 22.4481 66.1031 23.3457C65.5679 24.2434 64.8414 24.9553 63.9238 25.4815C63.0062 25.9922 61.9662 26.2476 60.8039 26.2476ZM60.8039 23.0208C61.3086 23.0208 61.7521 22.9124 62.1345 22.6958C62.5168 22.4636 62.8074 22.1464 63.0062 21.744C63.2203 21.3261 63.3273 20.854 63.3273 20.3279C63.3273 19.8017 63.2203 19.3451 63.0062 18.9582C62.792 18.5558 62.4939 18.2463 62.1115 18.0297C61.7444 17.7975 61.3086 17.6814 60.8039 17.6814C60.3145 17.6814 59.8787 17.7975 59.4963 18.0297C59.114 18.2463 58.8158 18.5558 58.6016 18.9582C58.3875 19.3606 58.2805 19.8249 58.2805 20.3511C58.2805 20.8618 58.3875 21.3261 58.6016 21.744C58.8158 22.1464 59.114 22.4636 59.4963 22.6958C59.8787 22.9124 60.3145 23.0208 60.8039 23.0208Z" fill="#246241"/>
<path fill-rule="evenodd" clip-rule="evenodd" d="M69.6857 30.403C70.6186 30.8363 71.6968 31.0529 72.9203 31.0529C74.1132 31.0529 75.1761 30.8131 76.109 30.3333C77.0419 29.8535 77.7759 29.1881 78.3112 28.3369C78.8464 27.4857 79.1145 26.4797 79.1145 25.319V14.71H75.6731V15.468C75.4171 15.25 75.1265 15.067 74.8014 14.9189C74.2049 14.6248 73.5243 14.4778 72.7597 14.4778C71.7351 14.4778 70.825 14.7254 70.0298 15.2206C69.2345 15.7004 68.6075 16.3659 68.1487 17.2171C67.6899 18.0529 67.4605 18.9969 67.4605 20.0493C67.4605 21.0862 67.6899 22.0303 68.1487 22.8815C68.6075 23.7327 69.2345 24.4059 70.0298 24.9011C70.825 25.3963 71.7351 25.644 72.7597 25.644C73.5091 25.644 74.1896 25.497 74.8014 25.2029C75.0977 25.0605 75.3653 24.8926 75.6043 24.6993V25.4119C75.6043 26.2011 75.352 26.8124 74.8472 27.2458C74.3579 27.6792 73.6773 27.8958 72.8056 27.8958C72.1021 27.8958 71.498 27.772 70.9933 27.5243C70.5039 27.2768 70.0604 26.913 69.6627 26.4333L67.5064 28.6154C68.0416 29.3893 68.7681 29.9851 69.6857 30.403ZM74.6867 22.1618C74.3349 22.3785 73.9144 22.4868 73.4249 22.4868C72.9356 22.4868 72.5073 22.3785 72.1403 22.1618C71.7885 21.9451 71.5133 21.6511 71.3145 21.2796C71.1156 20.8928 71.0162 20.4826 71.0162 20.0493C71.0162 19.585 71.1156 19.1672 71.3145 18.7957C71.5133 18.4243 71.7962 18.1302 72.1632 17.9136C72.5303 17.6969 72.9508 17.5885 73.4249 17.5885C73.9144 17.5885 74.3349 17.6969 74.6867 17.9136C75.0537 18.1302 75.3289 18.4243 75.5125 18.7957C75.7113 19.1672 75.8107 19.585 75.8107 20.0493C75.8107 20.5136 75.7113 20.9314 75.5125 21.3028C75.3289 21.6588 75.0537 21.9451 74.6867 22.1618Z" fill="#246241"/>
<path fill-rule="evenodd" clip-rule="evenodd" d="M86.5008 26.2476C85.3536 26.2476 84.3133 25.9922 83.3809 25.4815C82.4629 24.9553 81.7367 24.2434 81.2014 23.3457C80.6661 22.4481 80.3984 21.4422 80.3984 20.3279C80.3984 19.2136 80.6661 18.2154 81.2014 17.3332C81.7367 16.451 82.4629 15.7546 83.3809 15.2439C84.2981 14.7177 85.3384 14.4546 86.5008 14.4546C87.6626 14.4546 88.7028 14.71 89.62 15.2207C90.538 15.7314 91.2643 16.4356 91.7996 17.3332C92.3349 18.2154 92.6025 19.2136 92.6025 20.3279C92.6025 21.4422 92.3349 22.4481 91.7996 23.3457C91.2643 24.2434 90.538 24.9553 89.62 25.4815C88.7028 25.9922 87.6626 26.2476 86.5008 26.2476ZM86.5008 23.0208C87.005 23.0208 87.4485 22.9124 87.8311 22.6958C88.2131 22.4636 88.5039 22.1464 88.7028 21.744C88.9169 21.3261 89.024 20.854 89.024 20.3279C89.024 19.8017 88.9169 19.3451 88.7028 18.9582C88.4887 18.5558 88.1906 18.2463 87.808 18.0297C87.4412 17.7975 87.005 17.6814 86.5008 17.6814C86.0111 17.6814 85.5749 17.7975 85.193 18.0297C84.8103 18.2463 84.5123 18.5558 84.2981 18.9582C84.084 19.3606 83.977 19.8249 83.977 20.3511C83.977 20.8618 84.084 21.3261 84.2981 21.744C84.5123 22.1464 84.8103 22.4636 85.193 22.6958C85.5749 22.9124 86.0111 23.0208 86.5008 23.0208Z" fill="#246241"/>
<path fill-rule="evenodd" clip-rule="evenodd" d="M105.837 26.2243C105.088 26.2243 104.399 26.0773 103.772 25.7833C103.442 25.6285 103.144 25.4438 102.878 25.229V30.7512H99.4139V14.71H102.924V15.4886C103.178 15.2779 103.461 15.0957 103.772 14.9421C104.399 14.6325 105.088 14.4778 105.837 14.4778C106.892 14.4778 107.825 14.7332 108.636 15.2439C109.462 15.7546 110.104 16.451 110.563 17.3332C111.037 18.2154 111.274 19.2213 111.274 20.3511C111.274 21.4809 111.037 22.4868 110.563 23.369C110.104 24.2512 109.462 24.9475 108.636 25.4583C107.825 25.969 106.892 26.2243 105.837 26.2243ZM105.195 23.0208C105.699 23.0208 106.136 22.9047 106.502 22.6725C106.885 22.4404 107.183 22.1231 107.397 21.7208C107.611 21.3184 107.718 20.8618 107.718 20.3511C107.718 19.8249 107.611 19.3606 107.397 18.9582C107.183 18.5558 106.885 18.2463 106.502 18.0297C106.136 17.7975 105.707 17.6814 105.218 17.6814C104.729 17.6814 104.292 17.7975 103.91 18.0297C103.543 18.2463 103.253 18.5558 103.039 18.9582C102.825 19.3606 102.718 19.8249 102.718 20.3511C102.718 20.8618 102.817 21.3184 103.016 21.7208C103.23 22.1231 103.528 22.4404 103.91 22.6725C104.292 22.9047 104.721 23.0208 105.195 23.0208Z" fill="#246241"/>
<path d="M114.709 26.0155C115.351 26.1857 116.001 26.2708 116.658 26.2708C118.05 26.2708 119.151 25.9458 119.962 25.2958C120.788 24.6458 121.201 23.7714 121.201 22.6726C121.201 21.9607 121.071 21.388 120.811 20.9547C120.551 20.5059 120.215 20.1499 119.802 19.8869C119.388 19.6238 118.952 19.4148 118.494 19.26C118.035 19.1053 117.599 18.9737 117.187 18.8654C116.773 18.757 116.437 18.6333 116.177 18.494C115.917 18.3546 115.787 18.1689 115.787 17.9368C115.787 17.7201 115.887 17.5576 116.085 17.4493C116.284 17.3255 116.582 17.2636 116.98 17.2636C117.393 17.2636 117.813 17.3487 118.241 17.519C118.685 17.6892 119.083 17.9833 119.434 18.4011L121.43 16.3583C120.926 15.7082 120.268 15.2207 119.457 14.8957C118.662 14.5553 117.791 14.385 116.842 14.385C115.94 14.385 115.152 14.5398 114.48 14.8493C113.806 15.1588 113.286 15.5844 112.919 16.1261C112.553 16.6522 112.369 17.2791 112.369 18.0065C112.369 18.6874 112.499 19.2523 112.759 19.7011C113.018 20.1344 113.356 20.475 113.768 20.7225C114.181 20.9702 114.617 21.1637 115.076 21.3029C115.534 21.4422 115.971 21.5737 116.384 21.6976C116.796 21.8059 117.133 21.9375 117.393 22.0922C117.668 22.2315 117.806 22.4405 117.806 22.719C117.806 22.9357 117.691 23.1059 117.461 23.2297C117.247 23.3535 116.934 23.4154 116.521 23.4154C115.924 23.4154 115.374 23.3071 114.87 23.0904C114.365 22.8583 113.928 22.541 113.562 22.1386L111.566 24.1815C111.949 24.5994 112.407 24.9709 112.942 25.2958C113.493 25.6053 114.082 25.8452 114.709 26.0155Z" fill="#246241"/>
<path d="M127.601 26.2478C126.577 26.2478 125.667 26.0388 124.872 25.621C124.091 25.1876 123.48 24.5995 123.037 23.8567C122.592 23.0984 122.371 22.2317 122.371 21.2567V14.7102H125.881V21.2102C125.881 21.5971 125.942 21.9299 126.065 22.2084C126.202 22.487 126.401 22.7037 126.661 22.8585C126.921 23.0132 127.234 23.0906 127.601 23.0906C128.121 23.0906 128.534 22.9281 128.84 22.6031C129.146 22.2626 129.299 21.7984 129.299 21.2102V14.7102H132.809V21.2334C132.809 22.224 132.587 23.0984 132.143 23.8567C131.7 24.5995 131.088 25.1876 130.308 25.621C129.528 26.0388 128.626 26.2478 127.601 26.2478Z" fill="#246241"/>
<path d="M138.063 14.71H134.553V25.9922H138.063V19.3993C138.063 19.0124 138.14 18.6874 138.293 18.4243C138.461 18.1612 138.683 17.96 138.958 17.8207C139.234 17.6659 139.547 17.5885 139.898 17.5885C140.403 17.5885 140.824 17.751 141.16 18.0761C141.512 18.3856 141.688 18.8267 141.688 19.3993V25.9922H145.198V19.3993C145.198 19.0124 145.275 18.6874 145.427 18.4243C145.596 18.1612 145.817 17.96 146.093 17.8207C146.368 17.6659 146.682 17.5885 147.033 17.5885C147.538 17.5885 147.958 17.751 148.295 18.0761C148.646 18.3856 148.822 18.8267 148.822 19.3993V25.9922H152.333V19.0046C152.333 18.0606 152.134 17.2558 151.736 16.5903C151.353 15.9093 150.826 15.3909 150.153 15.035C149.495 14.6635 148.738 14.4778 147.882 14.4778C147.01 14.4778 146.222 14.6713 145.519 15.0582C145.062 15.3047 144.663 15.6228 144.32 16.0126C144.001 15.6049 143.614 15.2713 143.156 15.0117C142.545 14.6558 141.849 14.4778 141.069 14.4778C140.243 14.4778 139.501 14.6558 138.844 15.0117C138.557 15.1598 138.298 15.3372 138.063 15.5438V14.71Z" fill="#246241"/>
</svg>
