<svg width="160" height="38" viewBox="0 0 160 38" fill="none" xmlns="http://www.w3.org/2000/svg">
<path fill-rule="evenodd" clip-rule="evenodd" d="M20.9463 6.12231V36.0008H13.0612V6.12231H20.9463Z" fill="#246241"/>
<path fill-rule="evenodd" clip-rule="evenodd" d="M24.8888 6.12231H41.6447C47.0882 6.12231 51.501 10.5813 51.501 16.0818C51.501 21.5823 47.0882 26.0413 41.6447 26.0413H32.7739V36.0008H24.8888V6.12231ZM32.7739 18.0737H41.6447C42.7334 18.0737 43.6159 17.1819 43.6159 16.0818C43.6159 14.9817 42.7334 14.0899 41.6447 14.0899H32.7739V18.0737Z" fill="#246241"/>
<path fill-rule="evenodd" clip-rule="evenodd" d="M81.0703 6.12231V21.5595C81.0703 25.1348 83.9386 28.0332 87.4769 28.0332C91.0152 28.0332 93.8837 25.1348 93.8837 21.5595V6.12231H101.769V21.5595C101.769 29.5352 95.3702 36.0008 87.4769 36.0008C79.5838 36.0008 73.1852 29.5352 73.1852 21.5595V6.12231H81.0703Z" fill="#246241"/>
<path fill-rule="evenodd" clip-rule="evenodd" d="M54.4582 20.0656C54.4582 12.3649 60.6361 6.12231 68.2571 6.12231H70.2284V14.0899H68.2571C64.9909 14.0899 62.3433 16.7653 62.3433 20.0656V21.0615C62.3433 29.3122 55.724 36.0008 47.5587 36.0008H46.5731V28.0332H47.5587C51.3692 28.0332 54.4582 24.9119 54.4582 21.0615V20.0656Z" fill="#246241"/>
<path d="M146.122 7.11822C146.122 8.76836 144.799 10.1061 143.165 10.1061C141.532 10.1061 140.209 8.76836 140.209 7.11822C140.209 5.46807 141.532 4.13037 143.165 4.13037C144.799 4.13037 146.122 5.46807 146.122 7.11822Z" fill="#246241"/>
<path d="M110.235 36.0008L113.998 20.08L116.795 29.658C118.463 35.3706 126.471 35.3706 128.139 29.658L130.936 20.08L134.699 36.0008H142.805L136.889 10.9662C135.482 5.0128 127.18 4.79237 125.465 10.663L122.467 20.9287L119.469 10.663C117.755 4.79241 109.452 5.01277 108.045 10.9662L102.129 36.0008H110.235Z" fill="#246241"/>
</svg>
