<svg width="160" height="38" viewBox="0 0 160 38" fill="none" xmlns="http://www.w3.org/2000/svg">
<path d="M30.3814 8.95584V4.81616H17.4835V33.2582H30.3814V29.1185C27.7393 29.1185 25.2053 28.0563 23.3371 26.1657C21.4688 24.2751 20.4192 21.7109 20.4192 19.0372C20.4192 16.3635 21.4688 13.7992 23.3371 11.9086C25.2053 10.018 27.7393 8.95584 30.3814 8.95584Z" fill="#246241"/>
<path d="M30.3815 8.95557V29.1183C33.0236 29.1183 35.5576 28.0561 37.4259 26.1655C39.2942 24.2748 40.3437 21.7107 40.3437 19.0369C40.3437 16.3632 39.2942 13.7989 37.4259 11.9083C35.5576 10.0177 33.0236 8.95557 30.3815 8.95557Z" fill="#246241"/>
<path d="M47.5819 11.4883H50.4695V25.5632H47.5819V11.4883Z" fill="#246241"/>
<path d="M52.0865 20.7415C52.0865 19.7289 52.3836 18.7391 52.9402 17.8975C53.4967 17.056 54.2876 16.4005 55.2127 16.0143C56.1378 15.6282 57.1553 15.5287 58.1363 15.7283C59.1173 15.928 60.0177 16.418 60.7232 17.136C61.4288 17.8542 61.9078 18.768 62.0996 19.762C62.2912 20.7559 62.1871 21.7849 61.8001 22.7189C61.4132 23.6527 60.7611 24.4493 59.9263 25.0077C59.0915 25.5661 58.1116 25.861 57.1109 25.8553C56.4473 25.8605 55.7892 25.7317 55.1754 25.4761C54.5616 25.2206 54.0043 24.8436 53.5363 24.3674C53.0683 23.8911 52.6991 23.325 52.4501 22.7024C52.2012 22.0798 52.0776 21.4131 52.0865 20.7415ZM59.3248 20.7415C59.3134 20.305 59.1751 19.8815 58.9271 19.5241C58.6792 19.1666 58.3327 18.8911 57.9307 18.7319C57.5289 18.5727 57.0896 18.537 56.6678 18.6292C56.2459 18.7214 55.8603 18.9373 55.5591 19.2502C55.258 19.563 55.0546 19.9586 54.9745 20.3878C54.8944 20.8169 54.9411 21.2604 55.1088 21.6628C55.2764 22.0652 55.5576 22.4087 55.9172 22.6502C56.2767 22.8917 56.6986 23.0206 57.1302 23.0208C57.4241 23.0267 57.7159 22.971 57.9875 22.8575C58.2591 22.744 58.5047 22.575 58.7088 22.3611C58.913 22.1472 59.0713 21.8929 59.174 21.6143C59.2767 21.3356 59.3215 21.0385 59.3055 20.7415H59.3248Z" fill="#246241"/>
<path d="M73.5607 15.9203V25.086C73.5607 28.3198 71.0581 29.6932 68.5266 29.6932C67.6337 29.7674 66.7381 29.5878 65.9406 29.1749C65.143 28.7619 64.4752 28.1318 64.0124 27.3555L66.4476 25.9334C66.6449 26.3361 66.9588 26.6682 67.3474 26.8858C67.7361 27.1033 68.181 27.1958 68.6229 27.151C68.9044 27.1861 69.1901 27.1578 69.4595 27.0682C69.729 26.9785 69.9755 26.8297 70.1815 26.6324C70.3876 26.4351 70.548 26.1942 70.6512 25.9268C70.7545 25.6595 70.7981 25.3724 70.779 25.086V24.1996C70.4429 24.6119 70.0165 24.9392 69.5337 25.1557C69.0508 25.3721 68.5248 25.4716 67.9972 25.4464C66.7208 25.4464 65.4968 24.9333 64.5942 24.0199C63.6916 23.1067 63.1846 21.8679 63.1846 20.5762C63.1846 19.2845 63.6916 18.0458 64.5942 17.1325C65.4968 16.2191 66.7208 15.706 67.9972 15.706C68.5248 15.6808 69.0508 15.7803 69.5337 15.9967C70.0165 16.2132 70.4429 16.5404 70.779 16.9528V15.9787L73.5607 15.9203ZM70.779 20.547C70.7981 20.081 70.6792 19.6198 70.4373 19.2228C70.1954 18.8257 69.8417 18.511 69.4216 18.319C69.0016 18.1271 68.5344 18.0667 68.0801 18.1456C67.6259 18.2245 67.2053 18.439 66.8725 18.7617C66.5398 19.0844 66.31 19.5006 66.2128 19.9565C66.1156 20.4125 66.1553 20.8873 66.327 21.3202C66.4987 21.753 66.7944 22.124 67.176 22.3855C67.5577 22.6469 68.008 22.7869 68.4689 22.7873C68.7697 22.8092 69.0716 22.767 69.3552 22.6636C69.6388 22.56 69.898 22.3975 70.1156 22.1863C70.3333 21.9752 70.5048 21.7202 70.6191 21.4378C70.7333 21.1555 70.7878 20.8519 70.779 20.547Z" fill="#246241"/>
<path d="M75.1873 20.7417C75.1873 19.7298 75.4839 18.7408 76.0396 17.8996C76.5953 17.0584 77.385 16.403 78.309 16.0163C79.2329 15.6295 80.2494 15.5288 81.23 15.7269C82.2105 15.925 83.1109 16.413 83.8173 17.1291C84.5236 17.8454 85.0041 18.7574 85.1979 19.75C85.3919 20.7426 85.2904 21.7711 84.9065 22.7053C84.5225 23.6396 83.8733 24.4376 83.0411 24.9983C82.2088 25.5591 81.2308 25.8573 80.231 25.8554C79.566 25.8619 78.9064 25.734 78.291 25.4792C77.6755 25.2244 77.1165 24.8478 76.6468 24.3715C76.177 23.8952 75.8059 23.3288 75.5553 22.7055C75.3047 22.0822 75.1796 21.4145 75.1873 20.7417ZM82.4255 20.7417C82.4142 20.3047 82.2756 19.8808 82.0272 19.5231C81.7789 19.1656 81.4317 18.89 81.0293 18.7312C80.6269 18.5723 80.1871 18.5371 79.765 18.6301C79.3429 18.7231 78.9573 18.9401 78.6565 19.2538C78.3558 19.5676 78.1531 19.9642 78.0742 20.3939C77.9952 20.8237 78.0432 21.2675 78.2123 21.6696C78.3815 22.0719 78.6642 22.4147 79.025 22.6551C79.3858 22.8954 79.8086 23.0227 80.2406 23.0209C80.5345 23.0268 80.8263 22.9712 81.0979 22.8576C81.3695 22.7441 81.6151 22.5751 81.8192 22.3612C82.0234 22.1473 82.1817 21.893 82.2844 21.6144C82.3871 21.3357 82.4319 21.0387 82.4159 20.7417H82.4255Z" fill="#246241"/>
<path d="M86.6125 13.339C86.6125 12.9962 86.713 12.6609 86.9013 12.3758C87.0896 12.0907 87.3572 11.8684 87.6702 11.7372C87.9833 11.606 88.3278 11.5716 88.6601 11.6385C88.9924 11.7054 89.2977 11.8706 89.5374 12.113C89.777 12.3555 89.9401 12.6645 90.0062 13.0007C90.0724 13.3371 90.0384 13.6857 89.9087 14.0025C89.7791 14.3193 89.5594 14.5901 89.2777 14.7806C88.996 14.9711 88.6648 15.0728 88.3259 15.0728C87.873 15.0678 87.4401 14.8835 87.1199 14.5594C86.7997 14.2353 86.6176 13.7973 86.6125 13.339ZM86.8917 15.9202H89.7793V25.5633H86.8917V15.9202Z" fill="#246241"/>
<path d="M102.138 20.7413C102.171 21.3826 102.077 22.0241 101.864 22.6288C101.65 23.2335 101.321 23.7895 100.894 24.2647C100.467 24.7401 99.9518 25.1252 99.3773 25.3981C98.803 25.6711 98.1809 25.8263 97.547 25.8551C97.009 25.8913 96.4699 25.8041 95.97 25.6001C95.4699 25.3959 95.022 25.0802 94.6594 24.6765V29.4395H91.7718V15.9198H94.6594V16.8257C95.0225 16.4231 95.4708 16.1089 95.9708 15.9065C96.4709 15.704 97.0097 15.6186 97.547 15.6568C98.1784 15.6856 98.798 15.8399 99.3704 16.111C99.9428 16.3821 100.457 16.7647 100.883 17.2368C101.31 17.7089 101.64 18.2614 101.855 18.8628C102.071 19.4641 102.167 20.1024 102.138 20.7413ZM99.2507 20.7413C99.2393 20.2889 99.0962 19.85 98.8394 19.4796C98.5826 19.1091 98.2234 18.8235 97.8069 18.6588C97.3904 18.494 96.9351 18.4574 96.498 18.5533C96.061 18.6493 95.6618 18.8737 95.3502 19.1983C95.0386 19.523 94.8287 19.9335 94.7468 20.3784C94.6648 20.8232 94.7144 21.2827 94.8893 21.6992C95.0643 22.1156 95.3568 22.4705 95.7303 22.7195C96.1038 22.9685 96.5415 23.1003 96.9887 23.0985C97.295 23.1117 97.6006 23.0592 97.8854 22.9444C98.1703 22.8297 98.428 22.6553 98.6416 22.4328C98.8552 22.2102 99.0198 21.9444 99.1248 21.6529C99.2298 21.3614 99.2726 21.0508 99.2507 20.7413Z" fill="#246241"/>
<path d="M110.926 22.6702C110.926 24.891 109.001 25.8358 106.961 25.8358C106.128 25.9116 105.293 25.7331 104.562 25.3233C103.831 24.9135 103.238 24.2913 102.86 23.5371L105.343 22.115C105.442 22.4625 105.655 22.7653 105.948 22.9728C106.24 23.1803 106.594 23.2797 106.951 23.2546C107.634 23.2546 107.981 23.0403 107.981 22.6507C107.981 21.589 103.293 22.1539 103.293 18.813C103.293 16.709 105.045 15.6571 107.028 15.6571C107.782 15.6229 108.53 15.796 109.195 16.1578C109.859 16.5197 110.414 17.0569 110.801 17.7123L108.318 19.037C108.208 18.7857 108.029 18.572 107.802 18.4216C107.574 18.2712 107.309 18.1907 107.038 18.1896C106.537 18.1896 106.239 18.3844 106.239 18.7253C106.239 19.8357 110.926 19.1052 110.926 22.6702Z" fill="#246241"/>
<path d="M121.389 15.9199V25.5629H118.501V24.6571C118.173 25.0581 117.756 25.3753 117.286 25.5835C116.814 25.7917 116.301 25.8847 115.787 25.8552C113.862 25.8552 112.216 24.4623 112.216 21.8616V15.9199H115.104V21.4233C115.081 21.6533 115.107 21.8856 115.183 22.1042C115.258 22.3227 115.378 22.5222 115.536 22.6889C115.695 22.8556 115.887 22.9855 116.1 23.0698C116.313 23.1539 116.541 23.1904 116.769 23.1765C117.808 23.1765 118.54 22.5532 118.54 21.2285V15.9199H121.389Z" fill="#246241"/>
<path d="M137.752 19.641V25.5631H134.864V19.8942C134.864 18.9202 134.412 18.3163 133.498 18.3163C132.583 18.3163 132.006 18.9884 132.006 20.128V25.5631H129.118V19.8942C129.118 18.9202 128.666 18.3163 127.751 18.3163C126.837 18.3163 126.259 18.9884 126.259 20.128V25.5631H123.372V15.9201H126.259V16.8065C126.559 16.4149 126.948 16.1048 127.396 15.9041C127.843 15.7035 128.333 15.6186 128.82 15.6571C129.308 15.6313 129.795 15.7346 130.232 15.9566C130.669 16.1785 131.041 16.5118 131.313 16.9234C131.63 16.4932 132.05 16.1516 132.533 15.9302C133.015 15.7087 133.547 15.6148 134.075 15.6571C136.327 15.6571 137.752 17.2351 137.752 19.641Z" fill="#246241"/>
<path d="M140.178 15.8615C141.347 15.8615 142.295 14.902 142.295 13.7186C142.295 12.5351 141.347 11.5757 140.178 11.5757C139.008 11.5757 138.06 12.5351 138.06 13.7186C138.06 14.902 139.008 15.8615 140.178 15.8615Z" fill="#246241"/>
</svg>
