<svg width="160" height="38" viewBox="0 0 160 38" fill="none" xmlns="http://www.w3.org/2000/svg">
<path d="M89.3016 25.7659H92.5494V13.369H89.3016V25.7659ZM89.3016 11.4357H92.5494V8.48755H89.3016V11.4357Z" fill="#246241"/>
<path d="M94.6425 29.8255H97.8902V24.3641H97.9376C98.6299 25.4274 99.7527 26.1282 101.472 26.1282C104.624 26.1282 106.773 23.5909 106.773 19.5794C106.773 15.7129 104.696 13.0305 101.448 13.0305C99.7764 13.0305 98.6299 13.828 97.8422 14.9154H97.7704V13.3688H94.6425V29.8255ZM100.779 23.3975C98.8451 23.3975 97.8185 21.9235 97.8185 19.676C97.8185 17.4528 98.6299 15.6888 100.66 15.6888C102.666 15.6888 103.478 17.332 103.478 19.676C103.478 22.0201 102.427 23.3975 100.779 23.3975Z" fill="#246241"/>
<path d="M113.252 26.1282C116.308 26.1282 118.41 24.63 118.41 22.1409C118.41 19.2411 116.141 18.6611 114.087 18.2261C112.344 17.8637 110.72 17.767 110.72 16.7037C110.72 15.8096 111.556 15.3263 112.822 15.3263C114.207 15.3263 115.043 15.8096 115.186 17.1387H118.123C117.885 14.6496 116.093 13.0305 112.87 13.0305C110.076 13.0305 107.879 14.3113 107.879 16.9937C107.879 19.7002 110.028 20.3043 112.225 20.7393C113.897 21.0777 115.448 21.1985 115.448 22.3826C115.448 23.2525 114.637 23.8084 113.204 23.8084C111.747 23.8084 110.744 23.18 110.53 21.7543H107.521C107.712 24.3883 109.694 26.1282 113.252 26.1282Z" fill="#246241"/>
<path d="M130.74 25.7656V13.3687H127.492V20.5217C127.492 22.1649 126.561 23.3248 125.033 23.3248C123.648 23.3248 123.003 22.5274 123.003 21.0775V13.3687H119.779V21.6332C119.779 24.3398 121.307 26.1039 124.03 26.1039C125.75 26.1039 126.704 25.4514 127.54 24.3157H127.612V25.7656H130.74Z" fill="#246241"/>
<path d="M132.841 25.7657H136.088V18.5645C136.088 16.9212 136.972 15.8579 138.286 15.8579C139.48 15.8579 140.172 16.5828 140.172 17.9845V25.7657H143.42V18.5645C143.42 16.9212 144.255 15.8579 145.616 15.8579C146.811 15.8579 147.503 16.5828 147.503 17.9845V25.7657H150.751V17.4286C150.751 14.7221 149.294 13.0305 146.715 13.0305C145.163 13.0305 143.873 13.8521 143.037 15.2054H142.99C142.393 13.9005 141.151 13.0305 139.599 13.0305C137.903 13.0305 136.71 13.9005 136.041 15.0362H135.969V13.3688H132.841V25.7657Z" fill="#246241"/>
<path d="M4.65564 25.7659H7.90331V8.48755H4.65564V25.7659Z" fill="#246241"/>
<path d="M15.8444 26.1282C19.6413 26.1282 22.2442 23.2767 22.2442 19.5794C22.2442 15.882 19.6413 13.0305 15.8444 13.0305C12.0475 13.0305 9.44458 15.882 9.44458 19.5794C9.44458 23.2767 12.0475 26.1282 15.8444 26.1282ZM15.8444 23.615C13.8385 23.615 12.74 21.9959 12.74 19.5794C12.74 17.1628 13.8385 15.5196 15.8444 15.5196C17.8265 15.5196 18.9488 17.1628 18.9488 19.5794C18.9488 21.9959 17.8265 23.615 15.8444 23.615Z" fill="#246241"/>
<path d="M29.1507 29.9947C30.9656 29.9947 32.5417 29.5598 33.5685 28.5931C34.4759 27.7473 35.0252 26.5632 35.0252 24.8233V13.3688H31.8969V14.6738H31.8492C31.1089 13.6347 29.9865 13.0305 28.4582 13.0305C25.3538 13.0305 23.1569 15.3987 23.1569 19.096C23.1569 22.8417 25.8314 25.0166 28.5537 25.0166C30.1059 25.0166 31.0373 24.3883 31.7536 23.5667H31.8253V24.92C31.8253 26.6115 30.9417 27.5057 29.1029 27.5057C27.5985 27.5057 26.906 26.9015 26.6433 26.1282H23.4195C23.7538 28.5448 25.8075 29.9947 29.1507 29.9947ZM29.1029 22.3826C27.4313 22.3826 26.3329 21.1501 26.3329 19.0478C26.3329 16.9695 27.4313 15.6646 29.079 15.6646C31.0373 15.6646 31.9924 17.2112 31.9924 19.0236C31.9924 20.8602 31.1566 22.3826 29.1029 22.3826Z" fill="#246241"/>
<path d="M42.9191 26.1282C46.716 26.1282 49.3189 23.2767 49.3189 19.5794C49.3189 15.882 46.716 13.0305 42.9191 13.0305C39.1222 13.0305 36.5192 15.882 36.5192 19.5794C36.5192 23.2767 39.1222 26.1282 42.9191 26.1282ZM42.9191 23.615C40.9132 23.615 39.8147 21.9959 39.8147 19.5794C39.8147 17.1628 40.9132 15.5196 42.9191 15.5196C44.9011 15.5196 46.0235 17.1628 46.0235 19.5794C46.0235 21.9959 44.9011 23.615 42.9191 23.615Z" fill="#246241"/>
<path d="M151.931 11.3333C151.931 10.7772 152.377 10.3264 152.926 10.3264H154.916C155.466 10.3264 155.911 10.7772 155.911 11.3333C155.911 11.8894 155.466 12.3402 154.916 12.3402H152.926C152.377 12.3402 151.931 11.8894 151.931 11.3333Z" fill="#246241"/>
<path fill-rule="evenodd" clip-rule="evenodd" d="M69.0147 4.95654C76.7077 4.95654 82.9449 11.2678 82.9449 19.0531C82.9449 26.8384 76.7077 33.1496 69.0147 33.1496C61.3214 33.1496 55.0847 26.8384 55.0847 19.0531C55.0847 11.2678 61.3214 4.95654 69.0147 4.95654ZM68.5112 6.01138C66.922 6.2377 65.4088 7.52992 64.2341 9.69114C63.8934 10.318 63.586 11.0106 63.3181 11.7584C64.9153 11.3523 66.6699 11.1128 68.5112 11.0758V6.01138ZM62.1407 12.097C62.4739 11.0389 62.8815 10.0654 63.3518 9.20006C63.9341 8.12868 64.6251 7.20349 65.4038 6.4929C61.1698 7.73725 57.8325 11.1145 56.6029 15.399C57.3051 14.6111 58.2193 13.9118 59.2781 13.3226C60.1332 12.8466 61.0952 12.4341 62.1407 12.097ZM61.8062 13.2884C61.4048 14.9047 61.1682 16.6802 61.1316 18.5436H56.127C56.3507 16.9354 57.6276 15.404 59.7634 14.2154C60.3828 13.8706 61.0672 13.5595 61.8062 13.2884ZM62.1388 18.5436C62.1804 16.5101 62.4697 14.601 62.9483 12.9142C64.6152 12.4298 66.5017 12.137 68.5112 12.095V14.2961C67.7616 16.2381 66.2326 17.7852 64.3134 18.5436H62.1388ZM61.1316 19.5626H56.127C56.3507 21.1708 57.6276 22.702 59.7634 23.8907C60.3828 24.2355 61.0672 24.5466 61.8062 24.8178C61.4048 23.2015 61.1682 21.4259 61.1316 19.5626ZM62.9483 25.192C62.4697 23.5052 62.1804 21.5961 62.1388 19.5626H64.3134C66.2326 20.3209 67.7616 21.868 68.5112 23.8101V26.0112C66.5017 25.9691 64.6152 25.6763 62.9483 25.192ZM62.1407 26.0091C61.0952 25.672 60.1332 25.2596 59.2781 24.7836C58.2193 24.1944 57.3051 23.495 56.6029 22.7071C57.8325 26.9917 61.1698 30.3689 65.4038 31.6132C64.6251 30.9026 63.9341 29.9775 63.3518 28.9061C62.8815 28.0407 62.4739 27.0672 62.1407 26.0091ZM68.5112 32.0948C66.922 31.8684 65.4088 30.5762 64.2341 28.415C63.8934 27.7881 63.586 27.0955 63.3181 26.3477C64.9153 26.7539 66.6699 26.9934 68.5112 27.0304V32.0948ZM72.6256 31.6132C73.4042 30.9026 74.0952 29.9775 74.6774 28.9061C75.1476 28.0407 75.5557 27.0672 75.8886 26.0091C76.9341 25.672 77.896 25.2596 78.7513 24.7836C79.8099 24.1944 80.7244 23.495 81.4265 22.7071C80.1965 26.9917 76.8596 30.3689 72.6256 31.6132ZM74.7116 26.3477C74.4434 27.0955 74.1356 27.7881 73.795 28.415C72.6205 30.5762 71.1073 31.8684 69.5181 32.0948V27.0304C71.3595 26.9934 73.114 26.7539 74.7116 26.3477ZM76.223 24.8178C76.962 24.5466 77.6466 24.2355 78.2658 23.8907C80.402 22.7021 81.6786 21.1708 81.9022 19.5626H76.8979C76.861 21.4259 76.6242 23.2015 76.223 24.8178ZM75.8907 19.5626C75.8489 21.5961 75.5599 23.5052 75.0807 25.192C73.4141 25.6763 71.5276 25.9691 69.5181 26.0112V23.8117C70.2676 21.8689 71.7969 20.3211 73.7165 19.5626H75.8907ZM76.8979 18.5436H81.9022C81.6786 16.9354 80.402 15.404 78.2658 14.2154C77.6466 13.8706 76.962 13.5595 76.223 13.2884C76.6242 14.9047 76.861 16.6802 76.8979 18.5436ZM75.0807 12.9142C75.5599 14.601 75.8489 16.5101 75.8907 18.5436H73.7166C71.7969 17.785 70.2676 16.2372 69.5181 14.2944V12.095C71.5276 12.137 73.4141 12.4298 75.0807 12.9142ZM75.8886 12.097C76.9341 12.4341 77.896 12.8466 78.7513 13.3226C79.8099 13.9118 80.7244 14.6111 81.4265 15.399C80.1965 11.1145 76.8596 7.73725 72.6256 6.4929C73.4042 7.20349 74.0952 8.12868 74.6774 9.20006C75.1476 10.0654 75.5557 11.0389 75.8886 12.097ZM69.5181 6.01138C71.1073 6.2377 72.6205 7.52992 73.795 9.69114C74.1356 10.318 74.4434 11.0106 74.7116 11.7584C73.114 11.3523 71.3595 11.1128 69.5181 11.0758V6.01138Z" fill="#246241"/>
</svg>
