<svg width="28" height="28" viewBox="0 0 28 28" fill="none" xmlns="http://www.w3.org/2000/svg">
<path d="M25.6666 14C25.6666 7.55665 20.4432 2.3333 13.9999 2.3333C7.55661 2.3333 2.33325 7.55665 2.33325 14C2.33325 19.4714 6.09995 24.0623 11.1815 25.3231V17.5651H8.77577V14H11.1815V12.4637C11.1815 8.49278 12.9786 6.65225 16.8771 6.65225C17.6162 6.65225 18.8916 6.79715 19.4133 6.9421V10.174C19.1379 10.145 18.6597 10.1305 18.0655 10.1305C16.1525 10.1305 15.4133 10.8551 15.4133 12.7391V14H19.2241L18.5694 17.5651H15.4133V25.5812C21.19 24.8835 25.6666 19.9648 25.6666 14Z" fill="white" fill-opacity="0.6"/>
</svg>
