<svg width="28" height="28" viewBox="0 0 28 28" fill="none" xmlns="http://www.w3.org/2000/svg">
<path fill-rule="evenodd" clip-rule="evenodd" d="M23.074 25.6667H4.92584C3.494 25.6667 2.33325 24.506 2.33325 23.0741V4.92597C2.33325 3.49412 3.494 2.33337 4.92584 2.33337H23.074C24.5058 2.33337 25.6666 3.49412 25.6666 4.92597V23.0741C25.6666 24.506 24.5058 25.6667 23.074 25.6667ZM18.8106 22.1667H22.1666V15.2725C22.1666 12.3555 20.513 10.9451 18.2034 10.9451C15.8927 10.9451 14.9203 12.7446 14.9203 12.7446V11.2778H11.686V22.1667H14.9203V16.4507C14.9203 14.9191 15.6253 14.0077 16.9747 14.0077C18.2151 14.0077 18.8106 14.8835 18.8106 16.4507V22.1667ZM5.83325 7.84269C5.83325 8.9523 6.72595 9.85201 7.8276 9.85201C8.92925 9.85201 9.82141 8.9523 9.82141 7.84269C9.82141 6.73308 8.92925 5.83337 7.8276 5.83337C6.72595 5.83337 5.83325 6.73308 5.83325 7.84269ZM9.53005 22.1667H6.15758V11.2778H9.53005V22.1667Z" fill="white" fill-opacity="0.6"/>
</svg>
