<svg width="24" height="24" viewBox="0 0 24 24" fill="none" xmlns="http://www.w3.org/2000/svg">
<path d="M13.0571 7.43114C14.0335 6.45482 15.6164 6.45482 16.5927 7.43114C17.569 8.40745 17.569 9.99036 16.5927 10.9667C15.6164 11.943 14.0335 11.943 13.0571 10.9667C12.0808 9.99036 12.0808 8.40745 13.0571 7.43114ZM15.532 8.4918C15.1415 8.10127 14.5083 8.10127 14.1178 8.4918C13.7273 8.88232 13.7273 9.51548 14.1178 9.90601C14.5083 10.2965 15.1415 10.2965 15.532 9.90601C15.9225 9.51548 15.9225 8.88232 15.532 8.4918ZM21.5085 4.32253C21.2398 3.45772 20.5625 2.78068 19.6976 2.51226L19.0355 2.30679C16.642 1.56397 14.0339 2.20839 12.2618 3.9805L11.2659 4.97638C9.89618 3.94774 7.94313 4.05658 6.69682 5.30289L5.45428 6.54542C5.16139 6.83832 5.16139 7.31319 5.45428 7.60608L7.04526 9.19706L6.86545 9.37687C6.18203 10.0603 6.18203 11.1683 6.86545 11.8517L7.3608 12.3471L5.96524 13.143C5.76209 13.2589 5.62462 13.4629 5.59349 13.6947C5.56235 13.9265 5.64111 14.1595 5.80648 14.3249L9.69559 18.214C9.86083 18.3792 10.0937 18.458 10.3253 18.427C10.5569 18.3961 10.7609 18.2589 10.8769 18.056L11.6748 16.6611L12.172 17.1583C12.8554 17.8417 13.9635 17.8417 14.6469 17.1583L14.8237 16.9815L16.4133 18.5711C16.7062 18.864 17.181 18.864 17.4739 18.5711L18.7165 17.3286C19.9623 16.0828 20.0715 14.1307 19.0442 12.761L20.0421 11.7631C21.8149 9.99031 22.4591 7.38099 21.715 4.98683L21.5085 4.32253ZM19.253 3.94486C19.6461 4.06687 19.954 4.37461 20.0761 4.7677L20.2826 5.43201C20.8613 7.29413 20.3603 9.3236 18.9814 10.7024L13.5862 16.0977C13.4886 16.1953 13.3303 16.1953 13.2327 16.0977L7.92611 10.7911C7.82848 10.6934 7.82848 10.5352 7.92611 10.4375L13.3225 5.04116C14.7008 3.66285 16.7293 3.16163 18.5909 3.73939L19.253 3.94486ZM17.9641 13.8411C18.4166 14.6069 18.3138 15.6099 17.6558 16.2679L16.9436 16.9801L15.8843 15.9209L17.9641 13.8411ZM7.75748 6.36355C8.41599 5.70504 9.42001 5.60263 10.186 6.05632L8.10592 8.1364L7.04527 7.07575L7.75748 6.36355ZM10.5756 15.5619L10.0622 16.4593L7.56206 13.9591L8.46044 13.4467L10.5756 15.5619ZM6.68984 18.3946C6.98273 18.1017 6.98273 17.6268 6.68984 17.3339C6.39694 17.041 5.92207 17.041 5.62918 17.3339L3.1543 19.8088C2.86141 20.1017 2.86141 20.5765 3.1543 20.8694C3.4472 21.1623 3.92207 21.1623 4.21496 20.8694L6.68984 18.3946ZM4.74526 15.3894C5.03815 15.6823 5.03815 16.1571 4.74526 16.45L3.6846 17.5107C3.3917 17.8036 2.91683 17.8036 2.62394 17.5107C2.33104 17.2178 2.33104 16.7429 2.62394 16.45L3.6846 15.3894C3.97749 15.0965 4.45236 15.0965 4.74526 15.3894ZM8.63235 20.3412C8.92525 20.0483 8.92525 19.5734 8.63236 19.2805C8.33947 18.9876 7.8646 18.9876 7.5717 19.2805L6.5131 20.3391C6.2202 20.632 6.2202 21.1069 6.51309 21.3998C6.80598 21.6927 7.28085 21.6927 7.57375 21.3998L8.63235 20.3412Z" fill="black"/>
</svg>
